<mxfile host="app.diagrams.net" modified="2024-06-24T17:18:14.059Z" agent="Mozilla/5.0 (Windows NT 10.0; Win64; x64) AppleWebKit/537.36 (KHTML, like Gecko) Chrome/126.0.0.0 Safari/537.36" etag="FvZ7Kh2wkqua9En3GeGq" version="24.6.2" type="device">
  <diagram id="C5RBs43oDa-KdzZeNtuy" name="Page-1">
    <mxGraphModel dx="1434" dy="746" grid="1" gridSize="10" guides="1" tooltips="1" connect="1" arrows="1" fold="1" page="1" pageScale="1" pageWidth="827" pageHeight="1169" math="0" shadow="0">
      <root>
        <mxCell id="WIyWlLk6GJQsqaUBKTNV-0" />
        <mxCell id="WIyWlLk6GJQsqaUBKTNV-1" parent="WIyWlLk6GJQsqaUBKTNV-0" />
        <mxCell id="YSQ9petdPcKvNQWHhxnS-0" value="Inicio" style="ellipse;whiteSpace=wrap;html=1;" parent="WIyWlLk6GJQsqaUBKTNV-1" vertex="1">
          <mxGeometry x="379" y="20" width="70" height="20" as="geometry" />
        </mxCell>
        <mxCell id="4fcDc4YqXlQRVAz6K9Vw-1" style="edgeStyle=orthogonalEdgeStyle;rounded=0;orthogonalLoop=1;jettySize=auto;html=1;exitX=0.5;exitY=1;exitDx=0;exitDy=0;exitPerimeter=0;entryX=0.5;entryY=0;entryDx=0;entryDy=0;" edge="1" parent="WIyWlLk6GJQsqaUBKTNV-1" source="YSQ9petdPcKvNQWHhxnS-1" target="gIFZax0x_-JfEkcVk4F--0">
          <mxGeometry relative="1" as="geometry">
            <mxPoint x="428" y="140" as="targetPoint" />
          </mxGeometry>
        </mxCell>
        <mxCell id="YSQ9petdPcKvNQWHhxnS-1" value="&quot;Ingrese un numero, por favor.&quot;" style="strokeWidth=2;html=1;shape=mxgraph.flowchart.display;whiteSpace=wrap;" parent="WIyWlLk6GJQsqaUBKTNV-1" vertex="1">
          <mxGeometry x="351" y="60" width="126" height="60" as="geometry" />
        </mxCell>
        <mxCell id="YSQ9petdPcKvNQWHhxnS-3" style="edgeStyle=none;rounded=0;orthogonalLoop=1;jettySize=auto;html=1;entryX=0.5;entryY=0;entryDx=0;entryDy=0;entryPerimeter=0;" parent="WIyWlLk6GJQsqaUBKTNV-1" source="YSQ9petdPcKvNQWHhxnS-0" target="YSQ9petdPcKvNQWHhxnS-1" edge="1">
          <mxGeometry relative="1" as="geometry" />
        </mxCell>
        <mxCell id="YSQ9petdPcKvNQWHhxnS-10" style="edgeStyle=none;rounded=0;orthogonalLoop=1;jettySize=auto;html=1;exitX=1;exitY=0.5;exitDx=0;exitDy=0;entryX=0.5;entryY=0;entryDx=0;entryDy=0;entryPerimeter=0;" parent="WIyWlLk6GJQsqaUBKTNV-1" source="YSQ9petdPcKvNQWHhxnS-5" target="YSQ9petdPcKvNQWHhxnS-11" edge="1">
          <mxGeometry relative="1" as="geometry">
            <mxPoint x="600" y="512" as="targetPoint" />
            <Array as="points">
              <mxPoint x="605" y="412" />
            </Array>
          </mxGeometry>
        </mxCell>
        <mxCell id="YSQ9petdPcKvNQWHhxnS-12" value="Falso" style="edgeLabel;html=1;align=center;verticalAlign=middle;resizable=0;points=[];" parent="YSQ9petdPcKvNQWHhxnS-10" vertex="1" connectable="0">
          <mxGeometry x="0.3784" y="2" relative="1" as="geometry">
            <mxPoint as="offset" />
          </mxGeometry>
        </mxCell>
        <mxCell id="YSQ9petdPcKvNQWHhxnS-14" style="edgeStyle=none;rounded=0;orthogonalLoop=1;jettySize=auto;html=1;exitX=0.5;exitY=1;exitDx=0;exitDy=0;entryX=0.5;entryY=1;entryDx=0;entryDy=0;" parent="WIyWlLk6GJQsqaUBKTNV-1" source="YSQ9petdPcKvNQWHhxnS-5" target="YSQ9petdPcKvNQWHhxnS-16" edge="1">
          <mxGeometry relative="1" as="geometry">
            <mxPoint x="260" y="442" as="targetPoint" />
            <Array as="points">
              <mxPoint x="260" y="472" />
            </Array>
          </mxGeometry>
        </mxCell>
        <mxCell id="YSQ9petdPcKvNQWHhxnS-15" value="Verdadero" style="edgeLabel;html=1;align=center;verticalAlign=middle;resizable=0;points=[];" parent="YSQ9petdPcKvNQWHhxnS-14" vertex="1" connectable="0">
          <mxGeometry x="-0.0256" y="1" relative="1" as="geometry">
            <mxPoint as="offset" />
          </mxGeometry>
        </mxCell>
        <mxCell id="YSQ9petdPcKvNQWHhxnS-5" value="(&#39;i&#39; ≤ &#39;Numero_Usuario&#39;)" style="rhombus;whiteSpace=wrap;html=1;" parent="WIyWlLk6GJQsqaUBKTNV-1" vertex="1">
          <mxGeometry x="348.75" y="352" width="152.5" height="120" as="geometry" />
        </mxCell>
        <mxCell id="YSQ9petdPcKvNQWHhxnS-20" style="edgeStyle=none;rounded=0;orthogonalLoop=1;jettySize=auto;html=1;exitX=0.5;exitY=1;exitDx=0;exitDy=0;exitPerimeter=0;entryX=0.5;entryY=0;entryDx=0;entryDy=0;entryPerimeter=0;" parent="WIyWlLk6GJQsqaUBKTNV-1" source="YSQ9petdPcKvNQWHhxnS-11" target="YSQ9petdPcKvNQWHhxnS-21" edge="1">
          <mxGeometry relative="1" as="geometry">
            <mxPoint x="605" y="632" as="targetPoint" />
          </mxGeometry>
        </mxCell>
        <mxCell id="YSQ9petdPcKvNQWHhxnS-11" value="&lt;div&gt;&quot;La suma de los todos los números de 1 hasta el numero ingresado es: &quot;&lt;/div&gt;&lt;div&gt;Suma_Numeros&lt;/div&gt;" style="strokeWidth=2;html=1;shape=mxgraph.flowchart.display;whiteSpace=wrap;" parent="WIyWlLk6GJQsqaUBKTNV-1" vertex="1">
          <mxGeometry x="367.5" y="482" width="475" height="50" as="geometry" />
        </mxCell>
        <mxCell id="YSQ9petdPcKvNQWHhxnS-18" style="edgeStyle=none;rounded=0;orthogonalLoop=1;jettySize=auto;html=1;exitX=0.5;exitY=0;exitDx=0;exitDy=0;entryX=0.5;entryY=1;entryDx=0;entryDy=0;" parent="WIyWlLk6GJQsqaUBKTNV-1" source="YSQ9petdPcKvNQWHhxnS-16" target="YSQ9petdPcKvNQWHhxnS-17" edge="1">
          <mxGeometry relative="1" as="geometry" />
        </mxCell>
        <mxCell id="YSQ9petdPcKvNQWHhxnS-16" value="&#39;i&#39; = &#39;i&#39; + 1" style="rounded=1;whiteSpace=wrap;html=1;" parent="WIyWlLk6GJQsqaUBKTNV-1" vertex="1">
          <mxGeometry x="210" y="372" width="100" height="40" as="geometry" />
        </mxCell>
        <mxCell id="YSQ9petdPcKvNQWHhxnS-19" style="edgeStyle=none;rounded=0;orthogonalLoop=1;jettySize=auto;html=1;exitX=1;exitY=0.5;exitDx=0;exitDy=0;" parent="WIyWlLk6GJQsqaUBKTNV-1" source="YSQ9petdPcKvNQWHhxnS-17" edge="1">
          <mxGeometry relative="1" as="geometry">
            <mxPoint x="430" y="327" as="targetPoint" />
          </mxGeometry>
        </mxCell>
        <mxCell id="YSQ9petdPcKvNQWHhxnS-17" value="&#39;Suma_Numeros&#39; = Suma_Numeros + i" style="rounded=1;whiteSpace=wrap;html=1;" parent="WIyWlLk6GJQsqaUBKTNV-1" vertex="1">
          <mxGeometry x="195" y="312" width="130" height="30" as="geometry" />
        </mxCell>
        <mxCell id="YSQ9petdPcKvNQWHhxnS-21" value="Fin" style="strokeWidth=2;html=1;shape=mxgraph.flowchart.terminator;whiteSpace=wrap;" parent="WIyWlLk6GJQsqaUBKTNV-1" vertex="1">
          <mxGeometry x="578.75" y="562" width="52.5" height="25" as="geometry" />
        </mxCell>
        <mxCell id="YSQ9petdPcKvNQWHhxnS-24" style="edgeStyle=none;rounded=0;orthogonalLoop=1;jettySize=auto;html=1;exitX=0.5;exitY=1;exitDx=0;exitDy=0;entryX=0.5;entryY=0;entryDx=0;entryDy=0;" parent="WIyWlLk6GJQsqaUBKTNV-1" source="YSQ9petdPcKvNQWHhxnS-22" target="YSQ9petdPcKvNQWHhxnS-5" edge="1">
          <mxGeometry relative="1" as="geometry" />
        </mxCell>
        <mxCell id="YSQ9petdPcKvNQWHhxnS-22" value="&#39;Suma_Numeros&#39; = 0" style="rounded=1;whiteSpace=wrap;html=1;" parent="WIyWlLk6GJQsqaUBKTNV-1" vertex="1">
          <mxGeometry x="363.75" y="272" width="122.5" height="30" as="geometry" />
        </mxCell>
        <mxCell id="4fcDc4YqXlQRVAz6K9Vw-5" style="edgeStyle=orthogonalEdgeStyle;rounded=0;orthogonalLoop=1;jettySize=auto;html=1;exitX=0.5;exitY=1;exitDx=0;exitDy=0;entryX=0.5;entryY=0;entryDx=0;entryDy=0;" edge="1" parent="WIyWlLk6GJQsqaUBKTNV-1" source="gIFZax0x_-JfEkcVk4F--0" target="4fcDc4YqXlQRVAz6K9Vw-4">
          <mxGeometry relative="1" as="geometry" />
        </mxCell>
        <mxCell id="gIFZax0x_-JfEkcVk4F--0" value="&#39;Numero_Usuario&#39;" style="shape=parallelogram;html=1;strokeWidth=2;perimeter=parallelogramPerimeter;whiteSpace=wrap;rounded=1;arcSize=12;size=0.23;" parent="WIyWlLk6GJQsqaUBKTNV-1" vertex="1">
          <mxGeometry x="351.25" y="140" width="135" height="40" as="geometry" />
        </mxCell>
        <mxCell id="4fcDc4YqXlQRVAz6K9Vw-4" value="&quot;i&quot; = 0" style="rounded=1;whiteSpace=wrap;html=1;" vertex="1" parent="WIyWlLk6GJQsqaUBKTNV-1">
          <mxGeometry x="357.5" y="200" width="120" height="40" as="geometry" />
        </mxCell>
        <mxCell id="4fcDc4YqXlQRVAz6K9Vw-6" style="edgeStyle=orthogonalEdgeStyle;rounded=0;orthogonalLoop=1;jettySize=auto;html=1;exitX=0.5;exitY=1;exitDx=0;exitDy=0;entryX=0.443;entryY=0.067;entryDx=0;entryDy=0;entryPerimeter=0;" edge="1" parent="WIyWlLk6GJQsqaUBKTNV-1" source="4fcDc4YqXlQRVAz6K9Vw-4" target="YSQ9petdPcKvNQWHhxnS-22">
          <mxGeometry relative="1" as="geometry" />
        </mxCell>
      </root>
    </mxGraphModel>
  </diagram>
</mxfile>
